<svg xmlns="http://www.w3.org/2000/svg" viewBox="0 0 71.35 71.35"><g id="b704be7c-ba9e-4134-85dc-27ccadf2c50e"><g id="a31ffd15-efe5-4621-ab42-1c2dfd6bd767"><g id="ad428b0f-2f36-4248-a16b-2e92b8e36d9e"><path d="M22,29.43a5.06,5.06,0,0,1,0-10.11h.08A9.24,9.24,0,1,0,27,25.12,5,5,0,0,1,22,29.43Z" style="fill:none"/><path d="M38.05,0V4.76A28.53,28.53,0,0,1,66.59,33.3h4.76A33.3,33.3,0,0,0,38.05,0Z"/><path d="M57.08,33.3h4.76A23.79,23.79,0,0,0,38.05,9.51v4.76A19,19,0,0,1,57.08,33.3Z"/><path d="M47.57,33.3h4.75A14.27,14.27,0,0,0,38.05,19v4.75A9.52,9.52,0,0,1,47.57,33.3Z"/><path d="M38.05,28.54V33.3h4.76A4.76,4.76,0,0,0,38.05,28.54Z"/><path d="M33.3,4.76A33.3,33.3,0,0,0,6.06,57.21L0,71.35l14.14-6.06A33.3,33.3,0,0,0,66.59,38.05H33.3ZM18.13,36.86a9.22,9.22,0,1,1,3.95-17.53H22a5.06,5.06,0,1,0,5,5.8,9.19,9.19,0,0,1-8.86,11.74Z"/></g></g></g></svg>